<svg width="155" height="21" fill="none" xmlns="http://www.w3.org/2000/svg"><path fill-rule="evenodd" clip-rule="evenodd" d="M122.958.565c-.009.01-.018.187.054.112.009-.01.018-.187-.054-.112zm.109.056c0 4.067-3.026 7.582-2.562 11.597.195 1.683.678 3.345 1.695 4.706a8.2 8.2 0 003.801 2.799c3.362 1.21 7.718.662 10.222-2.142 3.981-4.46 2.412-12.188-3.212-14.213-2.043-.735-3.929-.487-6.031-.394.25 1.721 1.066 3.258 1.141 5.042 1.51-.197 2.8-.202 3.821 1.18 1.616 2.186.315 6.21-2.68 5.981-1.691-.129-2.934-1.794-3.036-3.463-.071-1.17.384-2.357.421-3.53.089-2.892-1.287-5.898-3.58-7.563zm.163 0l.163.168-.163-.168z" fill="#fff" fill-opacity=".7"/><path fill-rule="evenodd" clip-rule="evenodd" d="M122.958.901c-.009.01-.018.187.054.112.009-.009.018-.186-.054-.112zm.435-.111l.163.167-.163-.168zm.163.167l.163.168-.163-.168zm.163.168l.163.168-.163-.168zm.163.168l.163.168-.163-.168zm.163.168l.163.169-.163-.169zm.163.169l.163.168-.163-.168zm.163.168l.163.168-.163-.168zm.163.168l.163.168-.163-.168zm.163.168l.163.168-.163-.168zm-1.793.336v.504h.163c-.041-.244-.052-.294-.163-.504zm1.956 0l.163.168-.163-.168zm.163.168l.163.168-.163-.168zm3.206.056c-.072.075.1.065.109.056.072-.075-.1-.065-.109-.056zm.326 0c-.072.075.1.065.109.056.072-.075-.1-.065-.109-.056zm.217-.056v.168h1.305c-.426-.185-.842-.167-1.305-.168zm1.413.056c-.072.075.1.065.109.056.072-.075-.1-.065-.109-.056zm.327 0c-.073.075.099.065.108.056.073-.075-.099-.065-.108-.056zm-71.402.168c-.073.075.099.065.108.056.072-.075-.1-.065-.108-.056zm.217-.056v.168h1.63c-.515-.223-1.073-.168-1.63-.168zm1.63 0v.168h.49c-.204-.115-.253-.126-.49-.168zm31.409.056c-.073.075.1.065.108.056.073-.075-.1-.065-.108-.056zm.326 0c-.073.075.1.065.108.056.073-.075-.1-.065-.108-.056zm.217-.056v.168h.978c-.335-.147-.611-.16-.978-.168zm.978 0v.168h.652c-.246-.115-.378-.139-.652-.168zm.653 0v.168h.488c-.203-.115-.252-.126-.489-.168zm32.603 0l.163.168-.163-.168zm.163 0l.163.168-.163-.168zm.163 0v.168h.489c-.204-.115-.252-.126-.489-.168zm3.749 0l.163.168-.163-.168zm.272.056c-.073.075.099.065.108.056.073-.075-.099-.065-.108-.056zm-73.467.112l.163.168-.163-.168zm.163 0l.163.168-.163-.168zm.272.056c-.073.075.1.066.108.056.073-.074-.1-.065-.108-.056z" fill="#fff" fill-opacity=".7"/><path fill-rule="evenodd" clip-rule="evenodd" d="M67.315 16.924v-.168l-3.26-3.026h-.163c-.599.612-1.18 1.181-1.956 1.547-5.195 2.443-7.492-7.216-1.957-7.902a3.793 3.793 0 011.794.23c.844.323 1.487.95 2.119 1.588.77-.497 3.233-2.133 3.11-3.193-.144-1.24-2.462-2.182-3.436-2.521-3.757-1.306-8.56-.33-10.864 3.193-2.7 4.13-1.26 10.34 3.202 12.453 3.896 1.846 8.452.84 11.411-2.201z" fill="#fff" fill-opacity=".7"/><path fill-rule="evenodd" clip-rule="evenodd" d="M61.773 2.974l.162.168-.163-.168zm.272.056c-.073.075.1.065.108.056.073-.075-.1-.065-.108-.056zm.216-.056l.163.168-.163-.168zm29.017 0l.163.168-.163-.168zm.272.056c-.072.075.1.066.109.056.072-.074-.1-.065-.109-.056z" fill="#fff" fill-opacity=".7"/><path fill-rule="evenodd" clip-rule="evenodd" d="M87.692 14.403c-.51 1.356-1.175 2.657-1.63 4.033 3.154 1.545 7.224 2.194 10.596 1.008 2.64-.928 4.374-3.682 3.406-6.554-1.275-3.779-5.558-2.226-7.954-4.152-.635-.51-.339-1.147.312-1.444.946-.432 2.129-.207 3.095.033.893.222 1.708.692 2.608.857.507-1.273 1.115-2.535 1.468-3.865-2.782-1.63-6.983-1.92-9.945-.67-2.461 1.038-4.05 3.815-3.075 6.552.805 2.262 3.494 2.874 5.52 3.326.8.178 1.98.268 2.567.923.942 1.05-.902 1.453-1.588 1.462-1.916.026-3.653-.769-5.38-1.51z" fill="#fff" fill-opacity=".7"/><path fill-rule="evenodd" clip-rule="evenodd" d="M95.517 2.974v.168h.49c-.204-.115-.253-.126-.49-.168zm.489 0l.163.168-.163-.168zm26.898 0l.163.168-.163-.168zm2.282 0l.163.168-.163-.168zm1.685.112c-.009.01-.018.187.054.112.009-.01.018-.187-.054-.112zm5.162-.112l.163.168-.163-.168zm.163 0l.163.168-.163-.168zM.64 3.142v.168h13.042c-1.128-.488-2.856-.168-4.075-.168H.64zm19.074 0v.168h5.38c-1.442-.623-3.815-.168-5.38-.168zm13.856 0v.168h4.402c-1.208-.522-3.093-.168-4.402-.168zm10.433 0v.168h5.217c-1.403-.607-3.694-.168-5.217-.168zm13.368 0l.163.168-.163-.168zm.163 0l.163.168-.163-.168zm5.216 0l.163.168-.163-.168zm.164 0l.163.168-.163-.168zm5.379 0v.168h5.706c-1.52-.657-4.055-.168-5.706-.168zm12.226 0v.168c1.69 0 3.567-.237 5.217.168-.766-.903-4.065-.336-5.217-.336zm10.107 0l.163.168-.163-.168zm.164 0l.163.168-.163-.168zm5.705 0l.163.168-.163-.168zm.163 0l.163.168-.163-.168zm.163 0l.163.168-.163-.168zm5.706 0v.168h5.379c-1.441-.623-3.814-.168-5.379-.168zm10.27 0v.168h5.38c-1.442-.623-3.815-.168-5.38-.168zm12.553 0l.163.168-.163-.168zm7.172 0l.163.168-.163-.168zm.164 0l.163.168-.163-.168zm7.009 4.37h.163V3.31h14.671c-.97-.42-2.377-.168-3.423-.168h-7.662c-.829 0-2.816-.376-3.488.173-.696.568-.261 3.333-.261 4.197zM.64 3.31v16.303h5.38v-5.21h6.52v-4.034H6.02V7.344h7.499V3.31H.641zm12.879 0v4.202h.163c0-1.26.311-3.037-.163-4.202zm19.888 0v16.47h.163V8.353c0-1.478.393-3.677-.163-5.042z" fill="#fff" fill-opacity=".7"/><path fill-rule="evenodd" clip-rule="evenodd" d="M33.57 3.31v16.303h5.216v-7.395h.163c.879 1.952 2.834 3.722 4.171 5.378.518.642 1.072 1.612 1.862 1.916 1.171.45 2.993.1 4.237.1V3.31h-5.053v7.395c-2.261-1.88-3.631-5.836-6.201-7.222-1.09-.588-3.18-.173-4.395-.173zm4.402 0l.163.168-.163-.168z" fill="#fff" fill-opacity=".7"/><path fill-rule="evenodd" clip-rule="evenodd" d="M44.003 3.31v7.395h.163c0-2.097.622-5.468-.163-7.395zm5.217 0v16.47h.163V8.353c0-1.478.393-3.677-.163-5.042zm7.662 0l.163.168-.163-.168zm.163 0l.163.168-.163-.168zm6.195 0l.163.168-.163-.168zm.162 0l.163.168-.163-.168zm4.891 0l.163.168-.163-.168zm.163 0c1.139 3.71 4.38 6.611 5.707 10.252.615 1.69.162 4.256.162 6.05h5.216c0-1.72-.405-4.072.114-5.713 1.196-3.782 4.388-6.929 5.918-10.589-1.383 0-3.59-.437-4.874.102-1.239.52-2.884 4.164-3.277 5.444h-.326c-.59-1.302-2.02-4.849-3.314-5.444-1.332-.613-3.869-.102-5.326-.102zm5.543 0l.163.168-.163-.168zm6.357 0l.163.168-.163-.168zm9.619 0l.163.168-.163-.168zm.162 0l.163.168-.163-.168zm7.173 0l.164.168-.163-.168zm.163 0l.163.168-.163-.168zm4.891 0v16.47h.163V8.353c0-1.478.392-3.677-.163-5.042z" fill="#fff" fill-opacity=".7"/><path fill-rule="evenodd" clip-rule="evenodd" d="M102.527 3.31v16.303h5.379v-6.05c1.054 0 4.02-.528 4.793.269.858.885.261 4.56.261 5.78h5.217V3.31h-5.217c0 1.195.58 4.746-.261 5.613-.773.797-3.739.27-4.793.27V3.31h-5.379z" fill="#fff" fill-opacity=".7"/><path fill-rule="evenodd" clip-rule="evenodd" d="M112.797 3.31v5.715h.163c0-1.658.458-4.188-.163-5.715zm5.38 0v16.47h.163V8.353c0-1.478.392-3.677-.163-5.042zm8.64 0l.163.168-.163-.168zm6.194 0l.163.168-.163-.168zm.163 0l.163.168-.163-.168zm6.684 0v4.202h4.727v12.1h5.217v-12.1h4.728V3.31h-14.672zM19.55 3.478l.164.168-.163-.168zm5.543 0l.163.168-.163-.168zm13.042 0l.163.168-.163-.168zm18.258 0l.163.168-.163-.168zm.163 0l.163.168-.163-.168zm7.172 0l.163.168-.163-.168zm.164 0l.163.168-.163-.168zm10.107 0l.163.168-.163-.168zm6.194 0l.163.168-.163-.168zm5.217 0l.163.168-.163-.168zm4.238 0l.163.168-.163-.168zm.163 0l.163.168-.163-.168zm7.989 0l.162.168-.163-.168zm.162 0l.163.168-.163-.168zm24.779 0l.163.168-.163-.168zm2.771 0l.163.168-.163-.168zm1.467 0l.163.168-.163-.168zm6.521 0l.163.168-.163-.168zm-95.202.168l.163.168-.163-.168zm17.769 0l.163.168-.163-.168zm8.151 0l.163.168-.163-.168zm4.238 0l.163.168-.163-.168zm5.706 0l.163.168-.163-.168zm15.16 0l.163.168-.163-.168zm8.967 0l.163.168-.163-.168zm.162 0l.163.168-.163-.168zm24.29 0l.163.168-.163-.168zm4.238 0l.163.168-.163-.168zm6.847 0l.163.168-.163-.168zm-114.438.169l.163.168-.163-.168zm5.868 0l.163.168-.163-.168zm13.204 0l.164.168-.163-.168zm17.28 0l.164.168-.163-.168zm8.803 0l.163.168-.163-.168zm15.487 0l.163.168-.163-.168zm5.217 0l.163.168-.163-.168zm3.75 0l.163.168-.163-.168zm9.78 0l.163.168-.163-.168zm26.898 0l.163.168-.163-.168zm8.477 0l.163.168-.163-.168zm-114.764.168l.163.168-.163-.168zm5.868 0l.163.168-.163-.168zm30.159 0l.163.168-.163-.168zm9.455 0l.163.168-.163-.168zm3.75 0l.162.168-.163-.168zm5.705 0l.163.168-.163-.168zm14.345 0l.163.168-.163-.168zm10.433 0l.163.168-.163-.168zm23.475 0l.163.168-.163-.168zm4.565 0l.163.168-.163-.168zm7.335 0l.163.168-.163-.168zM19.225 4.15l.163.169-.163-.168zm6.194 0l.163.169-.163-.168zm13.204 0l.164.169-.163-.168zm16.466 0l.163.169-.163-.168zm10.107 0l.163.169-.163-.168z" fill="#fff" fill-opacity=".7"/><path fill-rule="evenodd" clip-rule="evenodd" d="M68.782 4.15l.163.169-.163-.168zm5.706 0l.163.169-.163-.168zm5.379 0l.163.169-.163-.168zm5.217 0l.163.169-.163-.168zm3.26 0l.163.169-.163-.168zm11.086 0l.162.169-.163-.168zm23.148 0l.163.169-.163-.168zm3.26 0l.163.169-.163-.168zm8.966 0l.163.169-.163-.168zm-115.579.169l.163.168-.163-.168zm6.194 0l.163.168-.163-.168zm13.368 0l.163.168-.163-.168zm16.138 0l.163.168-.163-.168zm10.433 0l.163.168-.163-.168zm9.13 0l.162.168-.163-.168zm5.217 0l.163.168-.163-.168zm5.215 0l.164.168-.163-.168zm3.261 0l.163.168-.163-.168zm11.412 0l.163.168-.163-.168zm22.985 0l.163.168-.163-.168zm3.26 0l.163.168-.163-.168zm1.468 0l.163.168-.163-.168zm7.662 0l.163.168-.163-.168zm-96.018.168l.163.168-.163-.168zm15.65 0l.163.168-.163-.168zm11.085 0l.163.168-.163-.168zm3.26 0l.163.168-.163-.168zm5.705 0l.164.168-.163-.168zm13.368 0l.163.168-.163-.168zm34.397 0l.163.168-.163-.168zm4.891 0l.163.168-.163-.168zm7.824 0l.163.168-.163-.168zm-116.069.168l.163.168-.163-.168zm6.521 0l.163.168-.163-.168zm13.531 0l.163.168-.163-.168zm15.324 0l.163.168-.163-.168zm11.411 0l.163.168-.163-.168zm13.693 0l.163.168-.163-.168zm5.217 0l.163.168-.163-.168zm14.672 0l.162.168-.163-.168zm22.985 0l.163.168-.163-.168zm3.586 0l.163.168-.163-.168zm9.455 0l.163.168-.163-.168zm-96.18.168l.163.168-.163-.168zm14.834 0l.163.168-.163-.168zm11.901 0l.163.168-.163-.168zm3.097 0l.163.168-.163-.168zm5.706 0l.163.168-.163-.168zm12.715 0l.163.168-.163-.168zm11.901 0l.162.168-.163-.168zm28.039 0l.163.168-.163-.168zm8.15 0l.163.168-.163-.168zm-116.72.167l.163.169-.163-.168zm6.847 0l.163.169-.163-.168zm28.201 0l.163.169-.163-.168zm12.39 0l.163.169-.163-.168zm2.934 0l.163.169-.163-.168zm10.107 0l.163.169-.163-.168zm5.217 0l.163.169-.163-.168zm14.671 0l.163.169-.163-.168zm22.986 0l.163.169-.163-.168zm3.913 0l.163.169-.163-.168zm1.304 0l.163.169-.163-.168zm8.314 0l.163.169-.163-.168zm-96.345.169l.163.168-.163-.168zm14.347 0l.163.168-.163-.168zm12.715 0l.163.168-.163-.168zm8.477 0l.163.168-.163-.168zm4.238 0l.163.168-.163-.168zm5.217 0l.163.168-.163-.168zm14.834 0l.163.168-.163-.168zm22.986 0l.163.168-.163-.168zm3.913 0l.163.168-.163-.168zm9.78 0l.163.168-.163-.168zm-117.21.168l.163.168-.163-.168zm7.173 0l.163.168-.163-.168zm13.694 0l.163.168-.163-.168zm14.02 0l.163.168-.163-.168zm13.041 0l.163.168-.163-.168zm2.771 0l.163.168-.163-.168zm5.706 0l.163.168-.163-.168zm4.075 0l.163.168-.163-.168zm5.217 0l.163.168-.163-.168zm2.771 0l.163.168-.163-.168zm40.428 0l.163.168-.163-.168zm8.477 0l.163.168-.163-.168zm-117.373.168l.163.168-.163-.168zm7.173 0l.163.168-.163-.168zm13.857 0l.163.168-.163-.168zm13.694 0l.162.168-.163-.168zm13.367 0l.163.168-.163-.168zm12.226 0l.163.168-.163-.168zm5.217 0l.163.168-.163-.168zm2.771 0l.163.168-.163-.168zm12.063 0l.163.168-.163-.168zm22.986 0l.163.168-.163-.168zm5.542 0l.163.168-.163-.168zm8.64 0l.164.168-.164-.168zm-117.698.168l.163.168-.163-.168zm7.499 0l.163.168-.163-.168zm13.856 0l.163.168-.163-.168zm13.367 0l.163.168-.163-.168zm16.302 0l.163.168-.163-.168zm5.706 0l.163.168-.163-.168zm51.025 0l.163.168-.163-.168zm1.303 0l.163.168-.163-.168zm8.804 0l.163.168-.163-.168zm-117.862.168l.163.168-.163-.168zm7.499 0l.163.168-.163-.168zm14.018 0l.164.168-.163-.168zm13.042 0l.163.168-.163-.168zm16.628 0l.163.168-.163-.168zm9.13 0l.162.168-.163-.168zm5.216 0l.163.168-.163-.168zm2.771 0L87.04 6l-.163-.168zm12.064 0l.163.168-.163-.168zm22.985 0l.163.168-.163-.168zm4.402 0l.163.168-.163-.168zm10.27 0l.163.168-.163-.168zM52.97 6l.163.168-.163-.169zm14.236.111c-.009.01-.018.187.054.112.01-.009.018-.186-.054-.112zM75.466 6l.163.168-.163-.169zm3.261 0l.163.168-.163-.169zm5.216 0l.163.168-.163-.169zm2.771 0l.163.168-.163-.169zM98.94 6l.163.168-.163-.169zm22.986 0l.163.168-.163-.169zm14.835 0l.163.168-.163-.169zM18.41 6.167l.163.168-.163-.168zm7.824 0l.163.168-.163-.168zm43.689 0l.163.168-.163-.168zm5.706 0l.163.168-.163-.168zm3.098 0l.163.168-.163-.168zm5.216 0l.163.168-.163-.168zm37.82 0l.163.168-.163-.168zm6.031 0l.163.168-.163-.168zm-87.377.169l.163.168-.163-.168zm12.39 0l.162.168-.163-.168zm14.183 0l.162.168-.163-.168zm8.639 0l.163.168-.163-.168zm2.934 0l.163.168-.163-.168zm5.217 0l.163.168-.163-.168zm2.77 0l.164.168-.163-.168zm12.227 0l.163.168-.163-.168zm22.986 0l.163.168-.163-.168zm4.727 0l.163.168-.163-.168zm1.304 0l.163.168-.163-.168zm9.129 0l.163.168-.163-.168zm-118.676.167l.163.169-.163-.169zm8.151 0l.163.169-.163-.169zm14.182 0l.163.169-.163-.169zm12.063 0l.163.169-.163-.169zm14.183 0l.163.169-.163-.169zm3.26 0l.163.169-.163-.169zm5.705 0l.163.169-.162-.169zm10.759 0l.164.169-.163-.169zm39.94 0l.163.169-.163-.169zm1.304 0l.163.169-.163-.169zm9.293 0l.163.169-.163-.169zm-118.84.169l.163.168-.163-.168zm8.15 0l.164.168-.163-.168zm14.346 0l.163.168-.163-.168zm25.92 0l.163.168-.163-.168zm3.586 0l.163.168-.163-.168zm8.151 0l.163.168-.163-.168zm5.217 0l.163.168-.163-.168zm14.998 0l.163.168-.163-.168zm22.985 0l.163.168-.163-.168zm4.89 0v.504h.163c-.041-.244-.051-.294-.163-.504zM18.084 6.84l.163.168-.163-.168zm8.476 0l.164.168-.163-.168zm14.346 0l.163.168-.163-.168zm11.574 0l.164.168-.163-.168zm14.02 0l.163.168-.163-.168zm9.455 0l.163.168-.163-.168zm2.282 0l.163.168-.163-.168zm5.217 0l.163.168-.163-.168zm2.934 0l.163.168-.163-.168zm12.227 0l.163.168-.163-.168zm38.635 0l.163.168-.163-.168zm-119.166.168l.163.168-.163-.168zm8.476 0l.164.168-.163-.168zm25.757 0l.163.168-.163-.168zm14.02 0l.163.168-.163-.168zm4.075 0l.163.168-.163-.168zm5.706 0l.163.168-.163-.168zm2.119 0l.163.168-.163-.168zm5.217 0l.163.168-.163-.168zm2.934 0l.163.168-.163-.168zm6.684 0v.168h1.14c-.38-.166-.726-.165-1.14-.168zm28.365 0l.163.168-.163-.168zm6.575.112c-.009.01-.018.187.054.112.009-.01.018-.187-.054-.112zm9.401-.112l.163.168-.163-.168zm-61.295.168l.163.168-.163-.168zm1.956 0l.163.168-.163-.168zm5.217 0l.163.168-.163-.168zm8.966 0l.163.168-.163-.168zm.163 0l.162.168-.163-.168zm2.282 0l.163.168-.163-.168zm.163 0l.163.168-.163-.168zm.163 0l.163.168-.163-.168zm.162 0l.164.168-.163-.168zm3.261 0l.163.168-.163-.168zm38.961 0l.163.168-.163-.168zM6.02 7.344v.168h7.499c-1.946-.842-5.38-.168-7.499-.168zm11.9 0l.164.168-.163-.168zm8.804 0l.163.168-.163-.168zm14.508 0l.163.168-.163-.168zm10.922 0l.163.168-.163-.168zm7.336 0l.163.168-.163-.168zm.272.056c-.073.075.1.065.108.056.073-.075-.1-.065-.108-.056zm.217-.056v.168h.815c-.288-.13-.495-.153-.815-.168zm.815 0v.168h.489c-.203-.115-.252-.126-.49-.168zm5.054 0l.163.168-.163-.168zm4.727 0l.163.168-.163-.168zm5.705 0l.164.168-.163-.168zm9.945 0l.163.168-.163-.168zm5.705 0l.164.168-.163-.168zm3.587 0l.163.168-.163-.168zm.163 0l.163.168-.163-.168zm.163 0l.163.168-.163-.168zm25.431 0l.163.168-.163-.168zm6.738.112c-.009.01-.018.187.054.112.009-.01.018-.187-.054-.112zm9.564-.112l.163.168-.163-.168zm-96.181.168l.163.168-.163-.168zm17.606 0l.163.168-.163-.168zm.163 0l.163.168-.163-.168zm2.446 0l.162.168-.163-.168zm.163 0l.162.168-.163-.168zm3.912 0l.163.168-.163-.168zm5.053 0l.163.168-.163-.168zm7.173 0l.163.168-.163-.168zm5.217 0l.163.168-.163-.168zm3.152.112c-.01.01-.018.187.053.112.01-.01.018-.187-.054-.112zm5.488-.112l.163.168-.163-.168zm4.401 0l.163.168-.163-.168zm.163 0l.163.168-.163-.168zm1.957 0l.163.168-.163-.168zm22.985 0l.163.168-.163-.168zm5.379 0V8.52h.163c-.007-.378-.02-.663-.163-1.008zm10.923 0l.163.168-.163-.168zm2.282 0v.168h4.564c-1.246-.54-3.213-.168-4.564-.168zm4.564 0v12.1h.163v-8.234c0-1.169.278-2.784-.163-3.866zm5.38 0l.163.168-.163-.168zm.163 0v.168h4.564c-1.247-.54-3.213-.168-4.564-.168zM17.757 7.68l.163.168-.163-.168zm9.13 0l.163.168-.163-.168zm14.671 0l.163.168-.163-.168zm10.433 0l.163.168-.163-.168zm6.684 0l.163.168-.163-.168zm3.26 0l.164.168-.163-.168zm.163 0l.163.168-.163-.168zm3.424 0l.162.168-.162-.168zm5.216 0l.163.168-.163-.168zm5.706 0l.163.168-.163-.168zm1.304 0l.163.168-.163-.168zm13.857 0l.162.168-.162-.168zm5.053 0l.163.168-.163-.168zm.163 0l.163.168-.163-.168zm1.468 0l.163.168-.163-.168zm29.669 0v.504h.163c-.041-.244-.052-.294-.163-.504zm21.844 0v12.1h.163v-8.234c0-1.169.277-2.784-.163-3.866zM41.72 7.848l.164.168-.163-.168zm16.63 0l.162.168-.163-.168zm3.911 0l.163.168-.163-.168zm.163 0l.163.168-.163-.168zm2.935 0l.163.168-.163-.168zm5.542 0l.163.168-.163-.168zm5.706 0l.163.168-.163-.168zm1.141 0l.163.168-.163-.168zm5.216 0l.163.168-.163-.168zm3.261 0v1.177h.163c-.003-.428-.002-.785-.163-1.177zm10.759 0l.163.168-.163-.168zm.163 0l.163.168-.163-.168zm.979 0l.162.168-.162-.168zm22.985 0l.163.168-.163-.168zm7.499 0l.163.168-.163-.168zm.162 0l.163.168-.163-.168zm1.142 0l.163.168-.163-.168zm.163 0l.163.168-.163-.168zm.163 0l.163.168-.163-.168zm7.498 0l.163.168-.163-.168zm-120.143.168l.163.168-.163-.168zm9.455 0l.163.168-.163-.168zm24.778 0l.163.168-.163-.168zm6.358 0l.163.168-.163-.168zm4.401 0l.163.168-.163-.168zm2.609 0l.163.168-.163-.168zm11.411 0l.163.168-.163-.168zm.978 0l.163.168-.163-.168zm5.217 0l.163.168-.163-.168zm8.694.112c-.01.01-.018.187.054.112.009-.009.018-.186-.054-.112zm5.977-.112l.163.168-.163-.168zm.653 0l.162.168-.162-.168zm29.995 0l.163.168-.163-.168zm.162 0l.163.168-.163-.168zm2.283 0l.163.168-.163-.168zm-112.971.168l.163.168-.163-.168zm9.455 0l.163.168-.163-.168zm24.778 0l.163.168-.163-.168zm6.032 0l.163.168-.163-.168zm5.054 0l.163.168-.163-.168zm2.119 0l.163.168-.163-.168zm6.031 0l.164.168-.163-.168zm5.706 0l.163.168-.163-.168zm21.03 0l.162.168-.163-.168zm.162 0l.163.168-.163-.168zm22.986 0l.163.168-.163-.168zm9.944 0l.163.168-.163-.168zm7.009 0l.163.168-.163-.168zm-120.469.168l.163.168-.163-.168zm9.78 0l.163.168-.163-.168zm14.835 0l.163.168-.163-.168zm15.65 0l.163.168-.163-.168zm5.379 0l.163.168-.163-.168zm1.794 0l.163.168-.163-.168zm6.357 0l.163.168-.163-.168zm6.195 0l.163.168-.163-.168zm5.217 0l.163.168-.163-.168zm8.966 0l.162.168-.162-.168zm29.343 0l.163.168-.163-.168zm10.27 0l.163.168-.163-.168zm6.683 0l.163.168-.163-.168zM17.432 8.52l.163.168-.163-.168zm9.78 0l.163.168-.163-.168zm14.998 0l.163.168-.163-.168zm9.455 0l.163.168-.163-.168zm5.869 0l.163.168-.163-.168zm5.706 0l.163.168-.163-.168zm1.467 0l.163.168-.163-.168zm6.52 0l.163.168-.163-.168zm5.706 0l.163.168-.163-.168zm54.448 0l.163.168-.163-.168zm-109.059.168l.163.168-.163-.168zm20.051 0l.163.168-.163-.168zm9.292 0l.163.168-.163-.168zm11.737 0l.163.168-.163-.168zm.978 0l.163.168-.163-.168zm7.01 0l.164.168-.163-.168zm5.87 0l.162.168-.163-.168zm5.216 0l.163.168-.163-.168zm9.455 0l.163.168-.163-.168zm28.854 0l.163.168-.163-.168zm10.759 0l.163.168-.163-.168zm6.521 0l.163.168-.163-.168zm-120.796.169l.163.168-.163-.168zm4.891 0l.162.168-.163-.168z" fill="#fff" fill-opacity=".7"/><path fill-rule="evenodd" clip-rule="evenodd" d="M22.322 8.857l-.163.336c.206-.164.227-.117.163-.336zm5.053 0l.163.168-.163-.168zm15.162 0l.163.168-.163-.168zm14.834 0l.163.168-.163-.168zm6.194 0l.163.168-.163-.168zm.653 0l.163.168-.163-.168zm18.095 0l.162.168-.162-.168zm9.944 0l.163.168-.163-.168zm28.528 0l.163.168-.163-.168zm5.705 0v.504h.163c-.041-.244-.051-.295-.163-.504zm5.217 0l.163.168-.163-.168zm6.358 0l.163.168-.163-.168z" fill="#fff" fill-opacity=".7"/><path fill-rule="evenodd" clip-rule="evenodd" d="M14.184 19.7c-.515-.046-.978-.087-1.317-.087.926-2.463 1.984-4.88 3.04-7.294.626-1.432 1.252-2.863 1.85-4.303.129-.309.265-.721.416-1.175.413-1.247.929-2.804 1.654-3.358.676-.516 4.28-.45 5.035-.071.7.351 1.212 1.89 1.602 3.06.139.417.262.787.372 1.04 1.75 4.003 3.487 8.039 5.104 12.1-.328 0-.793.043-1.317.09-1.458.13-3.38.304-4.111-.262-.353-.273-.483-.744-.614-1.218-.155-.562-.31-1.127-.84-1.365-1.035-.466-2.723-.324-4.188-.2-.608.05-1.177.099-1.646.099-.124.744-.419 2.23-1.06 2.684-.767.546-2.571.385-3.98.26zm6.834-6.978c.21-1.263.778-2.54 1.304-3.697.602.829.955 2.005 1.272 3.06.066.219.13.433.195.637h-2.771zm30.484-3.697l.163.168-.163-.168zm5.706 0l.163.168-.163-.168zm6.52 0l.163.168-.163-.168zm.326 0l.163.168-.163-.168zm7.5 0l.163.168-.163-.168zm14.726.112c-.01.009-.018.186.053.112.01-.01.018-.187-.054-.112zm6.466-.112l.163.168-.163-.168zm.163 0l.163.168-.163-.168zm14.997 0v.168h4.891c-1.325-.574-3.454-.168-4.891-.168zm23.964 0l.163.168-.163-.168zm-114.765.168l.163.168-.163-.168zm5.38 0l.163.168-.163-.168z" fill="#fff" fill-opacity=".7"/><path fill-rule="evenodd" clip-rule="evenodd" d="M27.54 9.193l.162.168-.163-.168zm23.962 0l.163.168-.163-.168zm12.39 0l.163.168-.163-.168zm7.824 0l.163.168-.163-.168zm10.434 0l.162.168-.163-.168zm11.247 0l.163.168-.163-.168zm.164 0l.163.168-.163-.168zm27.061 0l.163.168-.163-.168zM17.105 9.36l.163.169-.163-.168zm4.891 0l.163.169-.163-.168zm5.544 0l.162.169-.163-.168zm15.323 0l.163.169-.163-.168zm14.182 0l.163.169-.163-.168zm14.671 0l.163.169-.163-.168zm14.509 0l.163.169-.163-.168zm7.825 0l.163.169-.163-.168zm.163 0l.163.169-.163-.168zm.163 0l.163.169-.163-.168zm26.246 0l.163.169-.163-.168zm5.923.113c-.009.009-.018.186.054.112.009-.01.018-.187-.054-.112zm5.488-.113l.163.169-.163-.168zm6.195 0l.163.169-.163-.168zm-121.286.169l.163.168-.163-.168zm5.054 0l.163.168-.163-.168zm.652 0l.163.168-.163-.168zm5.053 0l.163.168-.163-.168zm15.324 0l.163.168-.163-.168zm28.855 0l.162.168-.163-.168zm10.106 0l.163.168-.163-.168zm12.879 0l.163.168-.163-.168zm.163 0l.163.168-.163-.168zm.162 0l.164.168-.163-.168zm25.432 0l.163.168-.163-.168zm11.574 0l.163.168-.163-.168zm6.032 0l.163.168-.163-.168zm-121.286.168l.163.168-.163-.168zm4.89 0l.163.168-.163-.168zm.816 0l.163.168-.163-.168zm5.053 0l.163.168-.163-.168zm15.487 0l.163.168-.163-.168zm8.205.112c-.009.01-.018.187.055.112.009-.01.018-.187-.055-.112zm5.489-.112l.163.168-.163-.168zm24.942 0l.163.168-.163-.168zm13.856 0l.163.168-.163-.168zm.163 0l.163.168-.163-.168zm36.353 0l.163.168-.163-.168zm-110.364.168l.163.168-.163-.168zm21.52 0l.163.168-.163-.168zm13.53 0l.163.168-.163-.168zm15.16 0l.163.168-.162-.168zm9.782 0l.163.168-.163-.168zm4.564 0l.163.168-.163-.168zm9.781 0l.163.168-.163-.168zm.163 0l.163.168-.163-.168zm.163 0l.163.168-.163-.168zm23.964 0l.163.168-.163-.168zm-103.679.168l.162.168-.163-.168zm6.031 0l.163.168-.163-.168zm5.054 0l.163.168-.163-.168zm15.649 0l.163.168-.163-.168zm7.825 0v.504h.163c-.041-.244-.052-.294-.163-.504zm20.867 0l.163.168-.163-.168zm9.454 0l.163.168-.163-.168zm4.728 0l.163.168-.163-.168zm10.433 0l.163.168-.163-.168zm.163 0l.163.168-.163-.168zm23.529.112c-.009.01-.018.187.054.112.009-.01.018-.187-.054-.112zm5.815-.112l.163.168-.163-.168zm6.031 0l.163.168-.163-.168zM6.02 10.201v.168h6.684c-1.753-.758-4.777-.168-6.684-.168zm15.65 0l.163.168-.163-.168zm1.141 0l.163.168-.163-.168zm49.394 0l.163.168-.163-.168zm25.105 0l.164.168-.163-.168zm.163 0l.163.168-.163-.168zm28.908.112c-.009.01-.017.187.055.112.008-.01.017-.187-.055-.112zm5.978-.112l.163.168-.163-.168zm6.086.112c-.009.01-.018.187.054.112.009-.01.018-.187-.054-.112zm-125.904.057v4.033h.163c0-1.216.294-2.91-.163-4.034zm4.076 0l.163.167-.163-.168zm5.053 0l.163.167-.163-.168zm6.358 0l.163.167-.163-.168zm15.649 0l.163.167-.163-.168zm13.042 0l.163.167-.163-.168zm15.65 0l.162.167-.163-.168zm9.129 0l.163.167-.163-.168zm5.053 0l.163.167-.163-.168zm11.085 0l.163.167-.163-.168zm.164 0l.162.167-.163-.168zm22.713.111c-.009.01-.018.187.054.112.009-.01.018-.187-.054-.112zm-97.539.056l.163.168-.163-.168zm20.866 0l.163.168-.163-.168zm12.933.113c-.009.009-.018.186.054.111.01-.009.018-.186-.054-.112zm24.562-.113l.163.168-.163-.168zm16.627 0l.163.168-.163-.168zm.164 0l.162.168-.162-.168zm34.396 0l.163.168-.163-.168zm5.869 0v.504h.163c-.041-.244-.052-.294-.163-.504zm-121.938.168l.163.168-.163-.168zm5.054 0l.163.168-.163-.168zm6.683 0l.163.168-.163-.168zm44.341 0l.163.168-.163-.168zm8.804 0l.163.168-.163-.168zm5.379 0l.163.168-.163-.168zm11.575 0l.163.168-.163-.168zm34.233 0v.505h.163c-.041-.245-.051-.295-.163-.505zm-116.069.168l.163.168-.163-.168zm6.684 0l.163.168-.163-.168zm5.053 0l.163.168-.163-.168zm22.986 0v1.009h.163c-.008-.379-.02-.664-.163-1.009zm5.543 0v1.177h.163c-.003-.428-.003-.785-.163-1.177zm24.452 0l.163.168-.163-.168zm5.706 0l.163.168-.163-.168zm11.738 0l.163.168-.163-.168zm-82.324.168l.162.168-.162-.168zm5.053 0l.163.168-.163-.168zm1.793 0l.163.168-.163-.168zm49.557 0l.163.168-.163-.168zm26.083 0l.163.168-.163-.168zm27.388 0v1.009h.163c-.008-.379-.021-.664-.163-1.009zm12.226 0v.84h.163c-.014-.33-.036-.542-.163-.84zm-122.1.168l.162.169-.162-.168zm5.053.001l.163.168-.163-.168zm7.01 0l.163.168-.163-.168zm44.504 0l.163.168-.163-.168zm8.151 0l.163.168-.163-.168zm17.931 0l.163.168-.163-.168zm21.356 0v.672h.163c-.028-.283-.052-.42-.163-.672zm12.226 0v.84h.163c-.014-.33-.036-.543-.163-.84zM23.3 11.377l.163.168-.163-.168zm63.903 0l.163.168-.163-.168zm11.9 0l.163.168-.163-.168zm-82.976.169l.164.168-.164-.168zm5.054 0l.163.168-.163-.168zm7.336 0l.163.168-.163-.168zm44.504 0l.162.168-.163-.168zm7.824 0l.163.168-.163-.168zm6.521 0l.163.168-.163-.168zm11.9 0l.163.168-.163-.168zm-78.085.168l.163.168-.163-.168zm2.282 0l.163.168-.163-.168zm57.219 0l.163.168-.163-.168zm18.748 0l.162.168-.163-.168zm-83.466.168l.163.168-.163-.168zm5.054 0l.163.168-.163-.168zm2.445 0l.163.168-.163-.168zm5.217 0l.163.168-.163-.168zm44.504 0l.163.168-.163-.168zm14.672 0l.163.168-.163-.168zm11.737 0l.163.168-.163-.168zm38.798 0v.504h.163c-.041-.244-.052-.294-.163-.504zm-122.427.168l.163.168-.163-.168zm5.054 0l.163.168-.163-.168zm7.662 0l.163.168-.163-.168zm28.039 0v.504h.163c-.041-.244-.052-.294-.163-.504zm16.628 0l.163.168-.163-.168zm7.173 0l.163.168-.164-.168zm7.498 0l.163.168-.163-.168zm44.558.112c-.009.01-.018.187.054.112.009-.01.018-.187-.054-.112zm-116.775.056l.163.168-.163-.168zm7.825 0l.163.168-.163-.168zm5.217 0l.163.168-.163-.168zm9.944 0l.163.168-.163-.168zm49.557 0l.164.168-.163-.168zm11.411 0l.163.168-.163-.168zm-83.954.168l.163.168-.163-.168zm5.054 0l.163.168-.163-.168zm2.771 0l.163.168-.163-.168zm5.217 0l.163.168-.163-.168zm9.944 0v7.395h.163v-5.21c0-.703.18-1.575-.163-2.185zm34.723 0l.163.168-.163-.168zm6.846 0l.163.168-.163-.168zm8.151 0l.163.168-.163-.168zm.163 0l.163.168-.163-.168zm11.248 0l.163.168-.163-.168zm20.541 0v.504h.163c-.041-.244-.051-.294-.163-.504zm5.869 0l.163.168-.163-.168zm6.194 0l.163.168-.163-.168zm5.923.112c-.009.01-.018.187.054.112.009-.01.018-.187-.054-.112zm-117.59.056c.556.656 2.13.336 2.934.336v-.168c-.984 0-1.973.068-2.934-.168zm2.935 0l.162.168-.163-.168zm27.604.112c-.01.01-.018.187.054.112.009-.01.017-.187-.054-.112zm5.325-.112l.163.168-.163-.168zm23.474 0l.163.168-.163-.168zm8.64 0l.163.168-.163-.168zm.164 0l.163.168-.163-.168zm10.921 0l.163.168-.163-.168zm26.41 0l.163.168-.163-.168zm-110.69.168l.163.168-.163-.168z" fill="#fff" fill-opacity=".7"/><path fill-rule="evenodd" clip-rule="evenodd" d="M23.79 12.722l.162.168-.163-.168zm5.215 0l.163.168-.163-.168zm10.108 0l.163.168-.163-.168zm34.56 0l.163.168-.163-.168zm15.649 0l.163.168-.163-.168zm37.006 0l.163.168-.163-.168zm6.031 0l.163.168-.163-.168zm-93.083.168l.163.168-.163-.168zm12.117.112c-.009.01-.017.187.055.112.009-.01.018-.187-.055-.112zm5.489-.112l.163.168-.163-.168zm16.954 0l.163.168-.163-.168zm6.194 0l.163.168-.163-.168zm9.618 0l.163.168-.163-.168zm.163 0l.163.168-.163-.168zm.164 0l.163.168-.163-.168zm10.107 0l.163.168-.163-.168zm20.377 0l.163.168-.163-.168zm11.9 0l.163.168-.163-.168zm-116.884.168l.163.168-.163-.168zm13.694 0l.163.168-.163-.168zm10.269 0l.163.168-.163-.168zm17.444 0l.163.168-.163-.168zm33.418 0l.163.168-.163-.168zm.163 0l.163.168-.163-.168zm9.619 0l.163.168-.163-.168zm20.377 0l.163.168-.163-.168zm6.031 0l.163.168-.163-.168zm11.738 0l.163.168-.163-.168zm-98.626.168l.163.168-.163-.168zm11.737 0l.163.168-.163-.168zm22.66 0l.163.168-.163-.168zm5.868 0l.163.168-.163-.168zm10.923 0l.163.168-.163-.168zm.163 0l.163.168-.163-.168zm.162 0l.163.168-.163-.168zm41.081 0l.163.168-.163-.168zm6.032 0l.163.168-.163-.168zm-122.915.168l.162.168-.162-.168zm14.019 0l.163.168-.163-.168zm10.433 0l.163.168-.163-.168zm17.28 0l.163.168-.163-.168zm22.66 0l.163.168-.163-.168zm11.737 0l.163.168-.163-.168zm.163 0l.162.168-.162-.168zm.163 0l.163.168-.163-.168zm8.477 0l.163.168-.163-.168zm26.408 0l.163.168-.163-.168zm11.575 0l.163.168-.163-.168zm-122.915.168l.162.168-.162-.168zm14.019 0l.163.168-.163-.168zm22.17 0l.163.168-.163-.168zm12.39 0l.163.168-.163-.168zm10.27 0v6.219h.163c0-1.79.507-4.572-.163-6.219zm5.542 0l.163.168-.163-.168zm12.553 0l.163.168-.163-.168zm.163 0l.162.168-.163-.168zm.162 0l.164.168-.163-.168zm7.717.113c-.009.009-.018.186.055.112.008-.01.017-.187-.055-.112zm7.608-.113v.169h4.89c-1.325-.574-3.454-.168-4.89-.168zm12.715 0l.163.168-.163-.168zm11.411 0l.163.168-.163-.168zM15.15 13.73l.162.168-.163-.168zm24.778 0l.163.168-.163-.168zm11.574 0l.163.168-.163-.168zm5.706 0l.163.168-.163-.168zm6.52 0l.163.168-.163-.168zm.326 0l.163.168-.163-.168zm28.855 0l.163.168-.163-.168zm.163 0l.163.168-.163-.168z" fill="#fff" fill-opacity=".7"/><path fill-rule="evenodd" clip-rule="evenodd" d="M93.235 13.73l.163.168-.163-.168zm19.562 0v5.883h.163c0-1.702.475-4.316-.163-5.883zm7.825 0l.163.168-.163-.168zm6.195 0l.163.168-.163-.168zm5.053 0l.163.168-.163-.168zm-116.72.169l.162.168-.163-.168zm14.345 0l.163.168-.163-.168zm10.595 0l.164.168-.163-.168zm11.412 0l.163.168-.163-.168zm12.063 0l.163.168-.163-.168zm.653 0l.163.168-.163-.168zm29.343 0l.163.168-.163-.168zm.163 0l.163.168-.163-.168zm.163 0l.163.168-.163-.168zm6.358 0v1.176h.163c-.003-.427-.003-.784-.163-1.176zm26.734 0l.163.168-.163-.168zm11.086 0l.163.168-.163-.168zm-97.811.168l.163.168-.163-.168zm17.117 0l.163.168-.163-.168zm6.031 0l.163.168-.163-.168zm.978 0l.163.168-.163-.168zm29.833 0l.163.168-.163-.168zm.163 0l.163.168-.163-.168zm26.409 0l.163.168-.163-.168zm6.358 0l.163.168-.163-.168zm4.564 0l.163.168-.163-.168zm6.358 0l.163.168-.163-.168zm-123.079.168l.163.168-.163-.168zm14.671 0l.163.168-.163-.168zm10.76 0l.163.168-.163-.168zm11.248 0l.163.168-.163-.168zm5.869 0l.163.168-.163-.168zm5.706 0l.163.168-.163-.168zm1.303 0l.163.168-.163-.168zm29.997 0l.162.168-.163-.168zm26.245 0l.163.168-.163-.168zm6.521 0l.163.168-.163-.168zm4.238 0l.163.168-.163-.168zM6.02 14.403v.168h6.684c-1.753-.758-4.777-.168-6.684-.168zm34.56 0l.163.168-.163-.168zm11.085 0l.163.168-.163-.168zm6.032 0l.163.168-.163-.168zm5.379 0l.163.168-.163-.168zm1.631 0l.163.168-.163-.168zm23.149 0l.163.168-.163-.168zm.162 0l.163.168-.163-.168zm32.767 0l.163.168-.163-.168zm6.684 0l.163.168-.163-.168zm3.749 0l.163.168-.163-.168zm6.683 0l.163.168-.163-.168zm-123.078.167l.163.169-.163-.168zm14.998 0l.163.169-.163-.168zm28.039 0l.163.169-.163-.168zm5.054 0l.163.169-.163-.168zm1.956 0l.163.169-.163-.168zm22.659 0l.163.169-.163-.168zm.652 0l.163.169-.163-.168zm6.684 0l.163.169-.163-.168zm26.083 0l.163.169-.163-.168zm6.683 0l.163.169-.163-.168zm.163 0l.163.169-.163-.168zm3.261 0l.163.169-.163-.168zm6.846 0l.163.169-.163-.168zm-123.078.169l.163.168-.163-.168zm14.998 0l.163.168-.163-.168zm10.922 0l.163.168-.163-.168zm11.085 0l.163.168-.163-.168zm6.195 0l.163.168-.163-.168zm4.727 0l.163.168-.162-.168zm2.446 0l.163.168-.163-.168zm23.311 0l.163.168-.163-.168zm.163 0l.163.168-.163-.168zm6.412.111c-.009.01-.018.188.054.113.01-.01.018-.187-.054-.112zm25.866-.111l.163.168-.163-.168zm7.01 0l.163.168-.163-.168zm.163 0l.163.168-.163-.168zm2.608 0l.163.168-.163-.168zm-116.069.168l.163.168-.163-.168zm15.324 0l.163.168-.163-.168zm10.922 0l.163.168-.163-.168zm17.28 0l.163.168-.163-.168zm.164 0l.162.168-.163-.168zm4.074 0l.163.168-.163-.168zm2.935 0l.163.168-.163-.168zm22.007 0l.163.168-.163-.168zm1.467 0l.163.168-.163-.168zm.164 0l.163.168-.163-.168zm39.286 0l.163.168-.163-.168zm.164 0l.163.168-.163-.168zm.163 0l.163.168-.163-.168zm1.63 0l.163.168-.163-.168zm.163 0l.163.168-.163-.168zm7.335 0l.163.168-.163-.168zm-123.078.168l.163.168-.163-.168zm15.324 0l.163.168-.163-.168zm11.085 0l.163.168-.163-.168zm10.922 0l.163.168-.163-.168zm6.52 0l.164.168-.163-.168zm3.587 0l.163.168-.163-.168zm3.424 0l.162.168-.162-.168zm23.8 0l.163.168-.163-.168zm.163 0l.163.168-.163-.168zm10.814.112c-.009.01-.018.187.054.112.009-.01.018-.187-.054-.112zm20.812-.112l.163.168-.163-.168zm7.825 0v.168h.978c-.335-.147-.611-.16-.978-.168zm-87.704.168l.163.168-.163-.168zm17.606 0l.163.168-.163-.168zm.163 0l.163.168-.163-.168zm2.772 0l.162.168-.163-.168zm3.912 0l.163.168-.163-.168zm21.518 0l.163.168-.163-.168zm2.608 0l.163.168-.163-.168zm.164 0l.163.168-.163-.168zm4.89 0l.163.168-.163-.168zm26.246 0l.163.168-.163-.168zm16.465 0l.163.168-.163-.168zm-123.079.168l.163.168-.163-.168zm15.65 0l.163.168-.163-.168zm11.248 0l.163.168-.163-.168zm10.759 0l.163.168-.163-.168zm7.173 0l.163.168-.163-.168zm.163 0l.163.168-.163-.168zm.272.056c-.073.075.1.066.108.056.073-.075-.1-.065-.108-.056zm1.304 0c-.072.075.1.066.109.056.072-.075-.1-.065-.109-.056zm.217-.056l.163.168-.163-.168zm.163 0l.163.168-.163-.168zm4.402 0l.163.168-.163-.168zm21.355 0l.163.168-.163-.168zm3.097 0l.163.168-.162-.168zm.163 0l.163.168-.163-.168zm.163 0l.163.168-.163-.168zm4.076 0l.163.168-.163-.168zm5.543 0l.163.168-.163-.168zm21.029 0l.163.168-.163-.168zm16.302 0l.163.168-.163-.168zm-71.565.169l.163.167-.163-.168zm21.029 0l.163.167-.163-.168zm3.913 0l.163.167-.163-.168zm.162 0l.163.167-.163-.168zm.163 0l.163.167-.163-.168zm3.098 0l.163.167-.163-.168zm.164 0l.162.167-.163-.168zm26.734 0l.163.167-.163-.168zm16.139 0l.163.167-.163-.168zm-123.079.167l.163.168-.163-.168zm15.976 0l.163.168-.163-.168zm11.248 0l.163.168-.163-.168zm10.759 0l.163.168-.163-.168zm13.857 0l.163.168-.163-.168zm20.866 0l.163.168-.163-.168zm5 .056c-.073.075.099.066.108.056.072-.074-.1-.065-.109-.056zm.217-.056v.168h1.304c-.426-.184-.842-.166-1.304-.168zm1.304 0v.168h.49c-.204-.115-.253-.125-.49-.168zm27.876 0l.163.168-.163-.168zm15.976 0l.163.168-.163-.168zm-107.103.168l.163.168-.163-.168zm11.41 0l.164.168-.163-.168zm24.617 0l.163.168-.163-.168zm33.745 0l.163.168-.163-.168zm37.168 0l.163.168-.163-.168zm-123.08.168l.164.168-.163-.168zm16.303 0l.163.168-.163-.168zm11.411 0l.163.168-.163-.168zm10.596 0l.164.168-.163-.168zm34.397 0l.163.168-.163-.168zm13.205 0l.163.168-.163-.168zm21.518 0l.163.168-.163-.168zm-107.43.169l.164.168-.163-.168zm16.303 0l.163.168-.163-.168zm11.574 0l.163.168-.163-.168zm10.597 0l.163.168-.163-.168zm14.182 0l.163.168-.163-.168zm70.261 0l.163.168-.163-.168zm-94.877.168l.163.167-.163-.168zm24.78 0l.162.167-.163-.168zm19.724 0l.163.167-.163-.168zm13.204 0l.163.167-.163-.168zm21.845 0l.163.167-.163-.168zm15.16 0l.163.167-.163-.168zm-122.915.167l.163.169-.163-.169zm16.628 0l.163.169-.163-.169zm22.17 0l.163.169-.163-.169zm14.346 0l.163.169-.163-.169zm19.562 0l.163.169-.163-.169zm35.212 0l.163.169-.163-.169zm-102.701.169l.163.168-.163-.168zm.163 0v.168h6.031c-1.597-.691-4.295-.168-6.031-.168zm22.985 0l.163.168-.163-.168zm10.597 0l.163.168-.163-.168zm33.58 0l.164.168-.163-.168zm13.205 0l.163.168-.163-.168zm22.334 0l.163.168-.163-.168zm14.672 0l.163.168-.163-.168zm-122.916.168l.163.168-.163-.168zm5.38 0l.163.168-.163-.168zm11.574 0l.163.168-.163-.168zm11.738 0l.163.168-.163-.168zm10.595 0l.163.168-.163-.168zm14.02 0l.163.168-.163-.168zm19.398 0l.164.168-.163-.168zm50.048 0l.163.168-.163-.168zm-111.178.168l.162.168-.163-.168zm17.28 0l.162.168-.163-.168zm10.595 0l.163.168-.163-.168zm13.695 0l.162.168-.163-.168zm32.603 0l.163.168-.163-.168zm22.659 0l.163.168-.163-.168zm14.183 0l.163.168-.163-.168zm-122.753.168l.163.168-.163-.168zm5.379 0l.163.168-.163-.168zm11.901 0l.163.168-.163-.168zm11.9 0l.163.168-.163-.168zm10.597 0l.162.168-.163-.168zm13.367 0l.163.168-.163-.168zm19.562 0l.163.168-.163-.168zm13.042 0l.162.168-.163-.168zm22.985 0l.163.168-.163-.168zm-108.733.168l.163.168-.163-.168zm11.9 0l.163.168-.163-.168zm5.38 0l.163.168-.163-.168zm12.063 0l.163.168-.163-.168zm10.596 0l.163.168-.163-.168zm13.042 0l.163.168-.163-.168zm55.915 0l.163.168-.163-.168zm13.694 0l.163.168-.163-.168zm-122.753.168l.163.168-.163-.168zm5.38 0l.163.168-.163-.168zm6.683 0l.163.168-.163-.168zm5.543 0l.163.168-.163-.168zm22.66 0l.163.168-.163-.168zm12.715 0l.163.168-.163-.168zm19.725 0l.163.168-.163-.168zm13.041 0l.163.168-.163-.168zm23.475 0l.163.168-.163-.168zm13.367 0l.163.168-.163-.168zm-122.589.168l.163.168-.163-.168zm5.38 0l.163.168-.163-.168zm12.226 0l.163.168-.163-.168zm12.063 0l.163.168-.163-.168zm10.759 0l.163.168-.163-.168zm12.39 0l.163.168-.163-.168zm32.766 0l.163.168-.163-.168zm23.801 0l.163.168-.163-.168zm13.041 0l.163.168-.163-.168zm-110.199.168l.163.168-.163-.168zm17.606 0l.163.168-.163-.168zm10.758 0l.163.168-.163-.168zm12.064 0l.163.168-.163-.168zm19.888 0l.163.168-.163-.168zm12.878 0l.163.168-.163-.168zm24.127 0l.163.168-.163-.168zm12.716 0l.163.168-.163-.168zM13.356 18.1l.163.168-.163-.168zm5.379 0l.163.168-.163-.168zm7.011 0l.163.168-.163-.168zm5.542 0l.163.168-.163-.168zm12.226 0l.163.168-.163-.168zm10.76 0l.163.168-.163-.168zm11.737 0l.163.168-.163-.168zm20.051 0l.163.168-.163-.168zm12.715 0l.163.168-.163-.168zm24.453 0l.163.168-.163-.168zm12.226 0l.163.168-.163-.168zm-116.721.168l.163.168-.163-.168zm7.173 0l.163.168-.163-.168zm17.769 0l.163.168-.163-.168zm10.923 0l.163.168-.163-.168zm11.085 0l.163.168-.163-.168zm20.214 0l.163.168-.163-.168zm12.716 0l.163.168-.163-.168zm24.778 0l.163.168-.163-.168zm11.9 0l.163.168-.163-.168zm-122.1.168l.163.168-.163-.168zm12.715 0l.163.168-.163-.168zm5.543 0l.163.168-.163-.168zm12.389 0l.163.168-.163-.168zm10.923 0l.163.168-.163-.168zm10.759 0l.163.168-.163-.168zm20.54 0l.163.168-.163-.168zm.163 0l.163.168-.163-.168zm12.064 0l.163.168-.163-.168zm25.43 0l.163.168-.163-.168zm11.412 0l.163.168-.163-.168zm-116.558.168l.163.168-.163-.168zm12.877 0l.164.168-.163-.168zm23.639 0l.163.168-.163-.168zm10.107 0l.163.168-.163-.168zm21.192 0l.163.168-.163-.168zm11.738 0l.162.168-.162-.168zm25.756 0l.163.168-.163-.168zm11.086 0l.163.168-.163-.168zm-121.938.168l.163.169-.163-.169zm13.041 0l.163.169-.163-.169zm5.543 0l.163.169-.163-.169zm12.389 0l.163.169-.163-.169zm11.249 0l.162.169-.163-.169zm9.78 0l.164.169-.163-.169zm21.682 0l.163.169-.163-.169zm.163 0l.163.169-.163-.169zm10.923 0l.162.169-.163-.169zm26.408 0l.163.169-.163-.169zm10.433 0l.163.169-.163-.169zM13.03 18.94l.163.169-.163-.168zm5.38 0l.163.169-.163-.168zm7.661 0l.163.169-.163-.168zm5.543 0l.163.169-.163-.168zm12.552 0l.164.169-.163-.168zm11.412 0l.163.169-.163-.168zm9.129 0l.163.169-.163-.168zm22.333 0l.163.169-.163-.168zm.163 0l.163.169-.163-.168zm10.433 0l.163.169-.163-.168zm26.735 0l.163.169-.163-.168zm9.944 0l.163.169-.163-.168zm.164 0l.163.169-.163-.168zm-116.069.169l.163.168-.163-.168zm25.92 0l.163.168-.163-.168zm11.574 0l.163.168-.163-.168zm8.477 0l.163.168-.163-.168zm23.148 0l.163.168-.163-.168zm.163 0l.163.168-.163-.168zm9.618 0l.164.168-.163-.168zm27.387 0l.163.168-.163-.168zm9.455 0l.163.168-.163-.168zm-121.285.168l.163.168-.163-.168zm13.367 0l.163.168-.163-.168zm5.543 0l.163.168-.163-.168zm12.715 0l.163.168-.163-.168zm11.738 0l.163.168-.163-.168zm.163 0l.163.168-.163-.168zm7.499 0l.163.168-.163-.168zm.162 0l.163.168-.163-.168zm23.964 0l.163.168-.163-.168zm.163 0l.163.168-.163-.168zm8.64 0l.163.168-.163-.168zm.163 0l.163.168-.163-.168zm28.039 0l.163.168-.163-.168zm8.803 0l.163.168-.163-.168zm-115.579.168l.163.168-.163-.168zm26.409 0l.163.168-.163-.168zm12.063 0l.163.168-.163-.168zm.163 0l.163.168-.163-.168zm6.52 0l.163.168-.163-.168zm.163 0l.163.168-.163-.168zm24.942 0l.163.168-.163-.168zm.163 0l.163.168-.163-.168zm.163 0l.163.168-.163-.168zm7.499 0l.163.168-.163-.168zm.163 0l.163.168-.163-.168zm28.855 0l.163.168-.163-.168zm7.987 0l.163.168-.163-.168zm.163 0l.163.168-.163-.168zM.64 19.613v.168h5.38c-1.442-.624-3.814-.168-5.38-.168zm12.064 0l.163.168-.163-.168zm.163 0v.168h5.38c-1.442-.624-3.815-.168-5.38-.168zm13.53 0v.168h5.543c-1.48-.64-3.935-.168-5.543-.168zm5.543 0l.163.168-.163-.168zm1.63 0v.168h5.216c-1.403-.607-3.694-.168-5.216-.168zm11.248 0v.168h4.401c-1.207-.522-3.093-.168-4.4-.168zm12.39 0l.163.168-.163-.168zm.163 0l.163.168-.163-.168zm5.543 0l.163.168-.163-.168zm.162 0l.163.168-.163-.168zm11.249 0v.168h5.38c-1.442-.624-3.815-.168-5.38-.168zm14.835 0l.162.168-.163-.168zm.162 0l.163.168-.163-.168zm.163 0l.163.168-.163-.168zm6.358 0l.163.168-.163-.168zm.163 0l.163.168-.163-.168zm6.521 0v.168h5.379c-1.441-.624-3.814-.168-5.379-.168zm10.27 0l.163.168-.163-.168zm.163 0v.168h5.217c-1.403-.607-3.695-.168-5.217-.168zm12.715 0l.163.168-.163-.168zm.163 0l.163.168-.163-.168zm7.173 0l.163.168-.163-.168zm.163 0l.163.168-.163-.168zm11.248 0l.163.168-.163-.168zm.163 0v.168h5.217c-1.403-.607-3.694-.168-5.217-.168zm-86.888.168l.163.168-.163-.168zm.163 0l.163.168-.163-.168zm.163 0l.163.168-.163-.168zm.163 0l.163.168-.163-.168zm3.913 0l.163.168-.163-.168zm.162 0l.163.168-.163-.168zm.163 0l.163.168-.163-.168zm.163 0l.163.168-.163-.168zm27.496.056c-.072.075.1.065.109.056.072-.075-.1-.066-.109-.056zm.326 0c-.073.075.1.065.108.056.073-.075-.1-.065-.108-.056zm4.619-.056l.163.168-.163-.168zm.162 0l.164.168-.163-.168zm.164 0l.163.168-.163-.168zm.163 0l.163.168-.163-.168zm30.648 0l.163.168-.163-.168zm.163 0l.163.168-.163-.168zm6.194 0l.163.168-.163-.168zm.164 0l.163.168-.163-.168zm-73.902.224c-.073.075.1.065.108.056.073-.075-.1-.065-.108-.056zm.326 0c-.073.075.099.065.108.056.072-.075-.1-.065-.108-.056zm.217-.056v.168h1.63c-.515-.223-1.073-.168-1.63-.168zm1.63 0v.168h.49c-.204-.115-.253-.126-.49-.168zm.598.056c-.073.075.1.065.108.056.073-.075-.1-.065-.108-.056zm29.506 0c-.072.075.1.065.109.056.072-.075-.1-.065-.109-.056zm.326 0c-.072.075.1.065.109.056.072-.075-.1-.065-.109-.056zm.327 0c-.073.075.099.065.108.056.072-.075-.1-.065-.108-.056zm.216-.056v.168h1.468c-.471-.204-.958-.168-1.467-.168z" fill="#fff" fill-opacity=".7"/><path fill-rule="evenodd" clip-rule="evenodd" d="M93.397 19.949v.168h.49c-.204-.115-.253-.126-.49-.168zm.599.056c-.073.075.1.065.108.056.073-.075-.1-.065-.108-.056zm.217-.056v.168h.489c-.203-.115-.252-.126-.49-.168zm32.44 0l.163.168-.163-.168zm.164 0l.163.168-.163-.168zm5.053 0l.163.168-.163-.168zm.163 0l.163.168-.163-.168zm.163 0l.163.168-.163-.168zm-4.89.168l.163.168-.163-.168zm.163 0l.163.168-.163-.168zm.162 0l.163.168-.163-.168zm3.587 0l.163.168-.163-.168zm.163 0l.163.168-.163-.168zm.163 0l.163.168-.163-.168zm-3.315.224c-.072.075.1.065.109.056.072-.075-.1-.065-.109-.056zm.326 0c-.072.075.1.065.109.056.072-.075-.1-.065-.109-.056zm.217-.056v.168h.979c-.335-.147-.611-.16-.979-.168z" fill="#fff" fill-opacity=".7"/><path fill-rule="evenodd" clip-rule="evenodd" d="M129.75 20.285v.168h.49c-.204-.115-.253-.126-.49-.168zm.49 0v.168h.489c-.204-.115-.253-.126-.489-.168z" fill="#fff" fill-opacity=".7"/></svg>